<?xml version="1.0" encoding="utf-8"?>
<!-- Generator: Adobe Illustrator 27.2.0, SVG Export Plug-In . SVG Version: 6.00 Build 0)  -->
<svg version="1.1" id="Camada_1" xmlns="http://www.w3.org/2000/svg" xmlns:xlink="http://www.w3.org/1999/xlink" x="0px" y="0px"
	 viewBox="0 0 331 73" style="enable-background:new 0 0 331 73;" xml:space="preserve">
<style type="text/css">
	.st0{fill:none;}
	.st1{fill:#FFFFFF;}
	.st2{fill:url(#SVGID_1_);}
	.st3{fill:#7EEAF6;}
	.st4{fill:url(#SVGID_00000145746421984254015760000000802726201382686648_);}
	.st5{fill:url(#SVGID_00000113319243876792534360000007633078391609647237_);}
	.st6{fill:url(#SVGID_00000093893376412458988510000011221360189161869961_);}
	.st7{fill:#EFCFD9;}
	.st8{fill:#93E1F5;}
	.st9{fill:#ACC5EF;}
	.st10{fill:#E9C2E1;}
	.st11{fill:url(#SVGID_00000034807303346529884930000012324442980283058091_);}
</style>
<text transform="matrix(1 0 0 1 -1132.5474 -482.9868)" style="font-family:'Reross-Quadratic'; font-size:60px;">anamnesis</text>
<rect x="-1132.5" y="-587.7" class="st0" width="310.7" height="74.8"/>
<text transform="matrix(1 0 0 1 -1132.5474 -543.9868)" style="font-family:'Reross-Quadratic'; font-size:60px;">anamnesis</text>
<path d="M-1126.9-380.5c0-7.2,6.2-13.1,13.4-13.1c7.8,0,13.4,5.3,13.4,13.1v12.5h-6.6v-2.2c-1.6,1.7-4.3,2.8-7.4,2.8
	C-1121.6-367.4-1126.9-372.7-1126.9-380.5z M-1106.7-380.5c0-4-2.8-6.8-6.7-6.8c-3.8,0-6.7,2.9-6.7,6.8c0,3.8,2.9,6.8,6.7,6.8
	C-1109.5-373.6-1106.7-376.6-1106.7-380.5z"/>
<path d="M-1093.5-380.5c0-7.8,6.7-13.1,13.6-13.1c7.8,0,13.3,5.3,13.3,13.1v12.5h-6.7v-12.5c0-4-2.8-6.8-6.7-6.8
	c-3.8,0-6.7,2.9-6.7,6.8v12.5h-6.7v-12.5H-1093.5z"/>
<path d="M-1061.4-380.5c0-7.2,6.2-13.1,13.4-13.1c7.8,0,13.4,5.3,13.4,13.1v12.5h-6.6v-2.2c-1.6,1.7-4.3,2.8-7.4,2.8
	C-1056.1-367.4-1061.4-372.7-1061.4-380.5z M-1041.2-380.5c0-4-2.8-6.8-6.7-6.8c-3.8,0-6.7,2.9-6.7,6.8c0,3.8,2.9,6.8,6.7,6.8
	C-1044-373.6-1041.2-376.6-1041.2-380.5z"/>
<path d="M-1028-380.5c0-7.8,6.7-13.1,13.6-13.1c4.3,0,7.8,1.6,10.2,4.2c2.5-2.6,6.2-4.2,10-4.2c7.8,0,13.3,5.3,13.3,13.1v12.5h-6.7
	v-12.5c0-4-2.9-6.8-6.7-6.8c-4,0-6.7,2.9-6.7,6.8v12.5h-6.7v-12.5c0-4-2.8-6.8-6.7-6.8c-3.8,0-6.7,2.9-6.7,6.8v12.5h-6.7v-12.5
	H-1028z"/>
<path d="M-974.5-380.5c0-7.8,6.7-13.1,13.6-13.1c7.8,0,13.3,5.3,13.3,13.1v12.5h-6.7v-12.5c0-4-2.8-6.8-6.7-6.8
	c-3.8,0-6.7,2.9-6.7,6.8v12.5h-6.7L-974.5-380.5L-974.5-380.5z"/>
<path d="M-942.3-380.5c0-7.2,6.2-13.1,13.4-13.1c7.8,0,13,4.9,13.4,13.1v2.3h-20.3c0.8,3,3.5,5,6.8,5c2.2,0,3.4-0.6,5.2-2.3l4.1,4.2
	c-2.4,2.4-5.6,3.8-9.2,3.8C-936.7-367.4-942.3-372.7-942.3-380.5z M-922.1-383.3c-1-2.9-3.4-4.8-6.8-4.8c-3.4,0-5.8,2-6.7,4.8
	H-922.1z"/>
<path d="M-909.4-373.6h16.7c1.2,0,2-0.8,2-2c0-1.1-0.8-1.9-2-1.9h-9.7c-4.2,0-7.7-3.4-7.7-7.7c0-4.1,3.5-7.7,7.7-7.7h14.9v5.6h-14.3
	c-1.1,0-2,0.8-2,1.9c0,1.2,0.8,2,2,2h9.7c4.2,0,7.7,3.2,7.7,7.7c0,4-3.5,7.7-7.7,7.7h-17.3L-909.4-373.6L-909.4-373.6z"/>
<path d="M-863.8-373.6h16.7c1.2,0,2-0.8,2-2c0-1.1-0.8-1.9-2-1.9h-9.7c-4.2,0-7.7-3.4-7.7-7.7c0-4.1,3.5-7.7,7.7-7.7h14.9v5.6h-14.3
	c-1.1,0-2,0.8-2,1.9c0,1.2,0.8,2,2,2h9.7c4.2,0,7.7,3.2,7.7,7.7c0,4-3.5,7.7-7.7,7.7h-17.3L-863.8-373.6L-863.8-373.6z"/>
<path d="M-874.5-411.6c0-3.8,3.1-6.9,6.9-6.9h2.7c1.3-4.5,5.5-7.6,10.2-7.6c5.9,0,10.7,4.8,10.7,10.7c0,5.9-4.8,10.7-10.7,10.7h-13
	C-871.4-404.7-874.5-407.8-874.5-411.6z"/>
<g>
	<path d="M-878.7-367.5v-26h7.7v26H-878.7z M-874.7-393.5c-2.5,0-4.7-2.2-4.7-4.7s2.1-4.6,4.7-4.6c2.6,0,4.6,2,4.6,4.6
		C-870.1-395.6-872.2-393.5-874.7-393.5z"/>
	<path class="st1" d="M-874.7-402.3c2.3,0,4.1,1.8,4.1,4.1s-1.8,4.2-4.1,4.2s-4.2-1.9-4.2-4.2S-877-402.3-874.7-402.3 M-871.5-392.9
		v25h-6.7v-25H-871.5 M-874.7-403.3c-2.9,0-5.2,2.3-5.2,5.1c0,1.7,0.9,3.3,2.2,4.2h-0.5h-1v1v25v1h1h6.7h1v-1v-25v-1h-1h-0.3
		c1.3-0.9,2.1-2.5,2.1-4.2C-869.6-401-871.9-403.3-874.7-403.3L-874.7-403.3z"/>
</g>
<linearGradient id="SVGID_1_" gradientUnits="userSpaceOnUse" x1="-13.5813" y1="710.1313" x2="90.4064" y2="814.1189" gradientTransform="matrix(1 0 0 -1 0 74)">
	<stop  offset="4.972066e-02" style="stop-color:#88EDF7"/>
	<stop  offset="0.3531" style="stop-color:#B3BDEE"/>
	<stop  offset="0.66" style="stop-color:#E8C0E2"/>
	<stop  offset="1" style="stop-color:#FEECC6"/>
</linearGradient>
<path class="st2" d="M62.5-747c-21.6,0-40.7,13.7-47.7,34h-25.9c-17,0-30.8,13.8-30.8,30.8v5c0,17,13.8,30.8,30.8,30.8h7.8
	c1.5,0.2,3,0.3,4.6,0.3h61.3c27.9,0,50.5-22.6,50.5-50.5S90.4-747,62.5-747z"/>
<path class="st3" d="M-193.5-672.8c0-7.2,6.2-13.1,13.4-13.1c7.8,0,13.4,5.3,13.4,13.1v12.5h-6.6v-2.2c-1.6,1.7-4.3,2.8-7.4,2.8
	C-188.2-659.7-193.5-665-193.5-672.8z M-173.3-672.8c0-4-2.8-6.8-6.7-6.8c-3.8,0-6.7,2.9-6.7,6.8c0,3.8,2.9,6.8,6.7,6.8
	C-176.1-666-173.3-669-173.3-672.8z"/>
<path class="st3" d="M-160.1-672.8c0-7.8,6.7-13.1,13.6-13.1c7.8,0,13.3,5.3,13.3,13.1v12.5h-6.7v-12.5c0-4-2.8-6.8-6.7-6.8
	c-3.8,0-6.7,2.9-6.7,6.8v12.5h-6.7v-12.5H-160.1z"/>
<path class="st3" d="M-127.9-672.8c0-7.2,6.2-13.1,13.4-13.1c7.8,0,13.4,5.3,13.4,13.1v12.5h-6.6v-2.2c-1.6,1.7-4.3,2.8-7.4,2.8
	C-122.7-659.7-127.9-665-127.9-672.8z M-107.8-672.8c0-4-2.8-6.8-6.7-6.8c-3.8,0-6.7,2.9-6.7,6.8c0,3.8,2.9,6.8,6.7,6.8
	C-110.5-666-107.8-669-107.8-672.8z"/>
<path class="st3" d="M-94.6-672.8c0-7.8,6.7-13.1,13.6-13.1c4.3,0,7.8,1.6,10.2,4.2c2.5-2.6,6.2-4.2,10-4.2
	c7.8,0,13.3,5.3,13.3,13.1v12.5h-6.7v-12.5c0-4-2.9-6.8-6.7-6.8c-4,0-6.7,2.9-6.7,6.8v12.5h-6.7v-12.5c0-4-2.8-6.8-6.7-6.8
	c-3.8,0-6.7,2.9-6.7,6.8v12.5h-6.7v-12.5H-94.6z"/>
<path class="st1" d="M-41.1-672.8c0-7.8,6.7-13.1,13.6-13.1c7.8,0,13.3,5.3,13.3,13.1v12.5h-6.7v-12.5c0-4-2.8-6.8-6.7-6.8
	c-3.8,0-6.7,2.9-6.7,6.8v12.5H-41L-41.1-672.8L-41.1-672.8z"/>
<path class="st1" d="M-8.9-672.8c0-7.2,6.2-13.1,13.4-13.1c7.8,0,13,4.9,13.4,13.1v2.3H-2.3c0.8,3,3.5,5,6.8,5
	c2.2,0,3.4-0.6,5.2-2.3l4.1,4.2c-2.4,2.4-5.6,3.8-9.2,3.8C-3.3-659.7-8.9-665-8.9-672.8z M11.4-675.7c-1-2.9-3.4-4.8-6.8-4.8
	s-5.8,2-6.7,4.8H11.4z"/>
<path class="st1" d="M24-666h16.7c1.2,0,2-0.8,2-2c0-1.1-0.8-1.9-2-1.9H31c-4.2,0-7.7-3.4-7.7-7.7c0-4.1,3.5-7.7,7.7-7.7h14.9v5.6
	H31.6c-1.1,0-2,0.8-2,1.9c0,1.2,0.8,2,2,2h9.7c4.2,0,7.7,3.2,7.7,7.7c0,4-3.5,7.7-7.7,7.7H24V-666z"/>
<path class="st1" d="M69.6-666h16.7c1.2,0,2-0.8,2-2c0-1.1-0.8-1.9-2-1.9h-9.7c-4.2,0-7.7-3.4-7.7-7.7c0-4.1,3.5-7.7,7.7-7.7h14.9
	v5.6H77.2c-1.1,0-2,0.8-2,1.9c0,1.2,0.8,2,2,2h9.7c4.2,0,7.7,3.2,7.7,7.7c0,4-3.5,7.7-7.7,7.7H69.6V-666z"/>
<g>
	<path class="st1" d="M54.5-690.5c0-2.3,1.9-4.1,4.2-4.1s4.1,1.8,4.1,4.1s-1.8,4.2-4.1,4.2S54.5-688.2,54.5-690.5z M55.2-685.3H62
		v25h-6.7L55.2-685.3L55.2-685.3z"/>
</g>
<linearGradient id="SVGID_00000047051218243280296250000001505738079309839524_" gradientUnits="userSpaceOnUse" x1="-139" y1="802.525" x2="43.45" y2="984.975" gradientTransform="matrix(1 0 0 -1 0 74)">
	<stop  offset="0.3397" style="stop-color:#C486AD"/>
	<stop  offset="0.66" style="stop-color:#F4B7C6"/>
	<stop  offset="1" style="stop-color:#FEECC6"/>
</linearGradient>
<path style="fill:url(#SVGID_00000047051218243280296250000001505738079309839524_);" d="M55.5-878c-20.5,0-38.8,12.4-46.6,31H-173
	c-19.3,0-35,15.7-35,35l0,0c0,19.3,15.7,35,35,35H-5.8H13h42.5c27.9,0,50.5-22.6,50.5-50.5S83.4-878,55.5-878z"/>
<path class="st1" d="M-200.5-803.8c0-7.2,6.2-13.1,13.4-13.1c7.8,0,13.4,5.3,13.4,13.1v12.5h-6.6v-2.2c-1.6,1.7-4.3,2.8-7.4,2.8
	C-195.2-790.7-200.5-796-200.5-803.8z M-180.3-803.8c0-4-2.8-6.8-6.7-6.8c-3.8,0-6.7,2.9-6.7,6.8c0,3.8,2.9,6.8,6.7,6.8
	C-183.1-797-180.3-800-180.3-803.8z"/>
<path class="st1" d="M-167.1-803.8c0-7.8,6.7-13.1,13.6-13.1c7.8,0,13.3,5.3,13.3,13.1v12.5h-6.7v-12.5c0-4-2.8-6.8-6.7-6.8
	c-3.8,0-6.7,2.9-6.7,6.8v12.5h-6.7v-12.5H-167.1z"/>
<path class="st1" d="M-134.9-803.8c0-7.2,6.2-13.1,13.4-13.1c7.8,0,13.4,5.3,13.4,13.1v12.5h-6.6v-2.2c-1.6,1.7-4.3,2.8-7.4,2.8
	C-129.7-790.7-134.9-796-134.9-803.8z M-114.8-803.8c0-4-2.8-6.8-6.7-6.8c-3.8,0-6.7,2.9-6.7,6.8c0,3.8,2.9,6.8,6.7,6.8
	C-117.5-797-114.8-800-114.8-803.8z"/>
<path class="st1" d="M-101.6-803.8c0-7.8,6.7-13.1,13.6-13.1c4.3,0,7.8,1.6,10.2,4.2c2.5-2.6,6.2-4.2,10-4.2
	c7.8,0,13.3,5.3,13.3,13.1v12.5h-6.7v-12.5c0-4-2.9-6.8-6.7-6.8c-4,0-6.7,2.9-6.7,6.8v12.5h-6.7v-12.5c0-4-2.8-6.8-6.7-6.8
	c-3.8,0-6.7,2.9-6.7,6.8v12.5h-6.7v-12.5H-101.6z"/>
<path class="st1" d="M-48.1-803.8c0-7.8,6.7-13.1,13.6-13.1c7.8,0,13.3,5.3,13.3,13.1v12.5h-6.7v-12.5c0-4-2.8-6.8-6.7-6.8
	c-3.8,0-6.7,2.9-6.7,6.8v12.5H-48L-48.1-803.8L-48.1-803.8z"/>
<path class="st1" d="M-15.9-803.8c0-7.2,6.2-13.1,13.4-13.1c7.8,0,13,4.9,13.4,13.1v2.3H-9.3c0.8,3,3.5,5,6.8,5
	c2.2,0,3.4-0.6,5.2-2.3l4.1,4.2c-2.4,2.4-5.6,3.8-9.2,3.8C-10.3-790.7-15.9-796-15.9-803.8z M4.4-806.7c-1-2.9-3.4-4.8-6.8-4.8
	s-5.8,2-6.7,4.8H4.4z"/>
<path class="st1" d="M17-797h16.7c1.2,0,2-0.8,2-2c0-1.1-0.8-1.9-2-1.9H24c-4.2,0-7.7-3.4-7.7-7.7c0-4.1,3.5-7.7,7.7-7.7h14.9v5.6
	H24.6c-1.1,0-2,0.8-2,1.9c0,1.2,0.8,2,2,2h9.7c4.2,0,7.7,3.2,7.7,7.7c0,4-3.5,7.7-7.7,7.7H17V-797z"/>
<path class="st1" d="M62.6-797h16.7c1.2,0,2-0.8,2-2c0-1.1-0.8-1.9-2-1.9h-9.7c-4.2,0-7.7-3.4-7.7-7.7c0-4.1,3.5-7.7,7.7-7.7h14.9
	v5.6H70.2c-1.1,0-2,0.8-2,1.9c0,1.2,0.8,2,2,2h9.7c4.2,0,7.7,3.2,7.7,7.7c0,4-3.5,7.7-7.7,7.7H62.6V-797z"/>
<g>
	<path class="st1" d="M47.5-821.5c0-2.3,1.9-4.1,4.2-4.1s4.1,1.8,4.1,4.1s-1.8,4.2-4.1,4.2S47.5-819.2,47.5-821.5z M48.2-816.3H55
		v25h-6.7L48.2-816.3L48.2-816.3z"/>
</g>
<linearGradient id="SVGID_00000004531472111639556020000012399787752303219349_" gradientUnits="userSpaceOnUse" x1="-139" y1="938.525" x2="43.45" y2="1120.975" gradientTransform="matrix(1 0 0 -1 0 74)">
	<stop  offset="4.972066e-02" style="stop-color:#88EDF7"/>
	<stop  offset="0.3531" style="stop-color:#B3BDEE"/>
	<stop  offset="0.66" style="stop-color:#E8C0E2"/>
	<stop  offset="1" style="stop-color:#FEECC6"/>
</linearGradient>
<path style="fill:url(#SVGID_00000004531472111639556020000012399787752303219349_);" d="M55.5-1014c-20.5,0-38.8,12.4-46.6,31H-173
	c-19.3,0-35,15.7-35,35l0,0c0,19.3,15.7,35,35,35H-5.8H13h42.5c27.9,0,50.5-22.6,50.5-50.5S83.4-1014,55.5-1014z"/>
<path class="st1" d="M-200.5-939.8c0-7.2,6.2-13.1,13.4-13.1c7.8,0,13.4,5.3,13.4,13.1v12.5h-6.6v-2.2c-1.6,1.7-4.3,2.8-7.4,2.8
	C-195.2-926.7-200.5-932-200.5-939.8z M-180.3-939.8c0-4-2.8-6.8-6.7-6.8c-3.8,0-6.7,2.9-6.7,6.8c0,3.8,2.9,6.8,6.7,6.8
	C-183.1-933-180.3-936-180.3-939.8z"/>
<path class="st1" d="M-167.1-939.8c0-7.8,6.7-13.1,13.6-13.1c7.8,0,13.3,5.3,13.3,13.1v12.5h-6.7v-12.5c0-4-2.8-6.8-6.7-6.8
	c-3.8,0-6.7,2.9-6.7,6.8v12.5h-6.7v-12.5H-167.1z"/>
<path class="st1" d="M-134.9-939.8c0-7.2,6.2-13.1,13.4-13.1c7.8,0,13.4,5.3,13.4,13.1v12.5h-6.6v-2.2c-1.6,1.7-4.3,2.8-7.4,2.8
	C-129.7-926.7-134.9-932-134.9-939.8z M-114.8-939.8c0-4-2.8-6.8-6.7-6.8c-3.8,0-6.7,2.9-6.7,6.8c0,3.8,2.9,6.8,6.7,6.8
	C-117.5-933-114.8-936-114.8-939.8z"/>
<path class="st1" d="M-101.6-939.8c0-7.8,6.7-13.1,13.6-13.1c4.3,0,7.8,1.6,10.2,4.2c2.5-2.6,6.2-4.2,10-4.2
	c7.8,0,13.3,5.3,13.3,13.1v12.5h-6.7v-12.5c0-4-2.9-6.8-6.7-6.8c-4,0-6.7,2.9-6.7,6.8v12.5h-6.7v-12.5c0-4-2.8-6.8-6.7-6.8
	c-3.8,0-6.7,2.9-6.7,6.8v12.5h-6.7v-12.5H-101.6z"/>
<path class="st1" d="M-48.1-939.8c0-7.8,6.7-13.1,13.6-13.1c7.8,0,13.3,5.3,13.3,13.1v12.5h-6.7v-12.5c0-4-2.8-6.8-6.7-6.8
	c-3.8,0-6.7,2.9-6.7,6.8v12.5H-48L-48.1-939.8L-48.1-939.8z"/>
<path class="st1" d="M-15.9-939.8c0-7.2,6.2-13.1,13.4-13.1c7.8,0,13,4.9,13.4,13.1v2.3H-9.3c0.8,3,3.5,5,6.8,5
	c2.2,0,3.4-0.6,5.2-2.3l4.1,4.2c-2.4,2.4-5.6,3.8-9.2,3.8C-10.3-926.7-15.9-932-15.9-939.8z M4.4-942.7c-1-2.9-3.4-4.8-6.8-4.8
	s-5.8,2-6.7,4.8H4.4z"/>
<path class="st1" d="M17-933h16.7c1.2,0,2-0.8,2-2c0-1.1-0.8-1.9-2-1.9H24c-4.2,0-7.7-3.4-7.7-7.7c0-4.1,3.5-7.7,7.7-7.7h14.9v5.6
	H24.6c-1.1,0-2,0.8-2,1.9c0,1.2,0.8,2,2,2h9.7c4.2,0,7.7,3.2,7.7,7.7c0,4-3.5,7.7-7.7,7.7H17V-933z"/>
<path class="st1" d="M62.6-933h16.7c1.2,0,2-0.8,2-2c0-1.1-0.8-1.9-2-1.9h-9.7c-4.2,0-7.7-3.4-7.7-7.7c0-4.1,3.5-7.7,7.7-7.7h14.9
	v5.6H70.2c-1.1,0-2,0.8-2,1.9c0,1.2,0.8,2,2,2h9.7c4.2,0,7.7,3.2,7.7,7.7c0,4-3.5,7.7-7.7,7.7H62.6V-933z"/>
<g>
	<path class="st1" d="M47.5-957.5c0-2.3,1.9-4.1,4.2-4.1s4.1,1.8,4.1,4.1s-1.8,4.2-4.1,4.2S47.5-955.2,47.5-957.5z M48.2-952.3H55
		v25h-6.7L48.2-952.3L48.2-952.3z"/>
</g>
<g>
	<g>
		
			<linearGradient id="SVGID_00000077284982144703942610000003695535500674513588_" gradientUnits="userSpaceOnUse" x1="280.1601" y1="50.1225" x2="300.9539" y2="70.9164" gradientTransform="matrix(1 0 0 -1 0 74)">
			<stop  offset="0.1782" style="stop-color:#F0D0D8"/>
			<stop  offset="1" style="stop-color:#FEECC6"/>
		</linearGradient>
		<path style="fill:url(#SVGID_00000077284982144703942610000003695535500674513588_);" d="M274.5,15.4c0-3.8,3.1-6.9,6.9-6.9h2.7
			c1.3-4.5,5.5-7.6,10.2-7.6c5.9,0,10.7,4.8,10.7,10.7s-4.8,10.7-10.7,10.7h-13C277.6,22.3,274.5,19.2,274.5,15.4z"/>
		<g>
			<path class="st7" d="M270.1,28.8c0-2.3,1.9-4.1,4.2-4.1s4.1,1.8,4.1,4.1s-1.8,4.2-4.1,4.2S270.1,31.1,270.1,28.8z"/>
		</g>
	</g>
	<path class="st8" d="M35.2,48.2c-3.8,0-6.7,2.9-6.7,6.8c0,3.8,2.9,6.8,6.7,6.8c4,0.1,6.7-2.9,6.7-6.8C41.9,51,39.1,48.2,35.2,48.2z
		"/>
	<path class="st9" d="M100.8,48.2c-3.8,0-6.7,2.9-6.7,6.8c0,3.8,2.9,6.8,6.7,6.8c3.9,0.1,6.7-2.9,6.7-6.8
		C107.5,51,104.7,48.2,100.8,48.2z"/>
	<path class="st10" d="M219.8,47.3c-3.4,0-5.8,2-6.7,4.8h13.5C225.6,49.2,223.2,47.3,219.8,47.3z"/>
	
		<linearGradient id="SVGID_00000065776452676999886250000005071957166379972750_" gradientUnits="userSpaceOnUse" x1="79.4312" y1="-31.3688" x2="252.1875" y2="141.3875">
		<stop  offset="4.972066e-02" style="stop-color:#88EDF7"/>
		<stop  offset="0.3531" style="stop-color:#B3BDEE"/>
		<stop  offset="0.66" style="stop-color:#E8C0E2"/>
		<stop  offset="1" style="stop-color:#FEECC6"/>
	</linearGradient>
	<path style="fill:url(#SVGID_00000065776452676999886250000005071957166379972750_);" d="M313.8,37.5h-296
		C8.1,37.5,0.3,45.4,0.3,55c0,9.7,7.8,17.5,17.5,17.5h296c9.7,0,17.5-7.8,17.5-17.5S323.5,37.5,313.8,37.5z M48.6,67.5H42v-2.2
		c-1.6,1.7-4.3,2.8-7.4,2.8c-7.5,0-12.8-5.3-12.8-13.1c0-7.2,6.2-13.1,13.4-13.1c7.8,0,13.4,5.3,13.4,13.1V67.5z M82,67.5h-6.7V55
		c0-4-2.8-6.8-6.7-6.8c-3.8,0-6.7,2.9-6.7,6.8v12.5h-6.7V55h-0.1c0-7.8,6.7-13.1,13.6-13.1C76.5,41.9,82,47.2,82,55V67.5z
		 M114.1,67.5h-6.6v-2.2c-1.6,1.7-4.3,2.8-7.4,2.8c-7.5,0-12.8-5.3-12.8-13.1c0-7.2,6.2-13.1,13.4-13.1c7.8,0,13.4,5.3,13.4,13.1
		V67.5z M167.8,67.5H161V55c0-4-2.9-6.8-6.7-6.8c-4,0-6.7,2.9-6.7,6.8v12.5h-6.7V55c0-4-2.8-6.8-6.7-6.8c-3.8,0-6.7,2.9-6.7,6.8
		v12.5h-6.7V55h-0.1c0-7.8,6.7-13.1,13.6-13.1c4.3,0,7.8,1.6,10.2,4.2c2.5-2.6,6.2-4.2,10-4.2c7.8,0,13.3,5.3,13.3,13.1V67.5z
		 M201.1,67.5h-6.7V55c0-4-2.8-6.8-6.7-6.8c-3.8,0-6.7,2.9-6.7,6.8v12.5h-6.7V55h-0.1c0-7.8,6.7-13.1,13.6-13.1
		c7.8,0,13.3,5.3,13.3,13.1V67.5z M233.1,57.3h-20.3c0.8,3,3.5,5,6.8,5c2.2,0,3.4-0.6,5.2-2.3l4.1,4.2c-2.4,2.4-5.6,3.8-9.2,3.8
		c-7.7,0.1-13.4-5.2-13.4-13c0-7.2,6.2-13.1,13.4-13.1c7.8,0,13,4.9,13.4,13.1V57.3z M256.6,67.5h-17.3v-5.6H256c1.2,0,2-0.8,2-2
		c0-1.1-0.8-1.9-2-1.9h-9.7c-4.2,0-7.7-3.4-7.7-7.7c0-4.1,3.5-7.7,7.7-7.7h14.9v5.6h-14.3c-1.1,0-2,0.8-2,1.9c0,1.2,0.8,2,2,2h9.7
		c4.2,0,7.7,3.2,7.7,7.7C264.3,63.8,260.8,67.5,256.6,67.5z M277.2,67.5h-6.7v-25h6.7V67.5z M302.2,67.5h-17.3v-5.6h16.7
		c1.2,0,2-0.8,2-2c0-1.1-0.8-1.9-2-1.9h-9.7c-4.2,0-7.7-3.4-7.7-7.7c0-4.1,3.5-7.7,7.7-7.7h14.9v5.6h-14.3c-1.1,0-2,0.8-2,1.9
		c0,1.2,0.8,2,2,2h9.7c4.2,0,7.7,3.2,7.7,7.7C309.9,63.8,306.4,67.5,302.2,67.5z"/>
</g>
<path d="M-684.9-792.5c0-7.2,6.2-13.1,13.4-13.1c7.8,0,13.4,5.3,13.4,13.1v12.5h-6.6v-2.2c-1.6,1.7-4.3,2.8-7.4,2.8
	C-679.6-779.4-684.9-784.7-684.9-792.5z M-664.7-792.5c0-4-2.8-6.8-6.7-6.8c-3.8,0-6.7,2.9-6.7,6.8c0,3.8,2.9,6.8,6.7,6.8
	C-667.5-785.6-664.7-788.6-664.7-792.5z"/>
<path d="M-651.5-792.5c0-7.8,6.7-13.1,13.6-13.1c7.8,0,13.3,5.3,13.3,13.1v12.5h-6.7v-12.5c0-4-2.8-6.8-6.7-6.8
	c-3.8,0-6.7,2.9-6.7,6.8v12.5h-6.7L-651.5-792.5L-651.5-792.5z"/>
<path d="M-619.4-792.5c0-7.2,6.2-13.1,13.4-13.1c7.8,0,13.4,5.3,13.4,13.1v12.5h-6.6v-2.2c-1.6,1.7-4.3,2.8-7.4,2.8
	C-614.1-779.4-619.4-784.7-619.4-792.5z M-599.2-792.5c0-4-2.8-6.8-6.7-6.8c-3.8,0-6.7,2.9-6.7,6.8c0,3.8,2.9,6.8,6.7,6.8
	C-602-785.6-599.2-788.6-599.2-792.5z"/>
<path d="M-586-792.5c0-7.8,6.7-13.1,13.6-13.1c4.3,0,7.8,1.6,10.2,4.2c2.5-2.6,6.2-4.2,10-4.2c7.8,0,13.3,5.3,13.3,13.1v12.5h-6.7
	v-12.5c0-4-2.9-6.8-6.7-6.8c-4,0-6.7,2.9-6.7,6.8v12.5h-6.7v-12.5c0-4-2.8-6.8-6.7-6.8c-3.8,0-6.7,2.9-6.7,6.8v12.5h-6.7v-12.5H-586
	z"/>
<path d="M-532.5-792.5c0-7.8,6.7-13.1,13.6-13.1c7.8,0,13.3,5.3,13.3,13.1v12.5h-6.7v-12.5c0-4-2.8-6.8-6.7-6.8
	c-3.8,0-6.7,2.9-6.7,6.8v12.5h-6.7L-532.5-792.5L-532.5-792.5z"/>
<path d="M-500.3-792.5c0-7.2,6.2-13.1,13.4-13.1c7.8,0,13,4.9,13.4,13.1v2.3h-20.3c0.8,3,3.5,5,6.8,5c2.2,0,3.4-0.6,5.2-2.3l4.1,4.2
	c-2.4,2.4-5.6,3.8-9.2,3.8C-494.7-779.4-500.3-784.7-500.3-792.5z M-480.1-795.3c-1-2.9-3.4-4.8-6.8-4.8s-5.8,2-6.7,4.8H-480.1z"/>
<path d="M-467.4-785.6h16.7c1.2,0,2-0.8,2-2c0-1.1-0.8-1.9-2-1.9h-9.7c-4.2,0-7.7-3.4-7.7-7.7c0-4.1,3.5-7.7,7.7-7.7h14.9v5.6h-14.3
	c-1.1,0-2,0.8-2,1.9c0,1.2,0.8,2,2,2h9.7c4.2,0,7.7,3.2,7.7,7.7c0,4-3.5,7.7-7.7,7.7h-17.3L-467.4-785.6L-467.4-785.6z"/>
<path d="M-421.8-785.6h16.7c1.2,0,2-0.8,2-2c0-1.1-0.8-1.9-2-1.9h-9.7c-4.2,0-7.7-3.4-7.7-7.7c0-4.1,3.5-7.7,7.7-7.7h14.9v5.6h-14.3
	c-1.1,0-2,0.8-2,1.9c0,1.2,0.8,2,2,2h9.7c4.2,0,7.7,3.2,7.7,7.7c0,4-3.5,7.7-7.7,7.7h-17.3L-421.8-785.6L-421.8-785.6z"/>
<path d="M-432.5-826.6c0-3.8,3.1-6.9,6.9-6.9h2.7c1.3-4.5,5.5-7.6,10.2-7.6c5.9,0,10.7,4.8,10.7,10.7s-4.8,10.7-10.7,10.7h-13
	C-429.4-819.7-432.5-822.8-432.5-826.6z"/>
<g>
	<path d="M-436.7-779.5v-26h7.7v26H-436.7z M-432.7-815.5c-2.5,0-4.7-2.2-4.7-4.7s2.1-4.6,4.7-4.6s4.6,2,4.6,4.6
		C-428.1-817.6-430.2-815.5-432.7-815.5z"/>
	<path class="st1" d="M-432.7-824.3c2.3,0,4.1,1.8,4.1,4.1s-1.8,4.2-4.1,4.2s-4.2-1.9-4.2-4.2S-435-824.3-432.7-824.3 M-429.5-804.9
		v25h-6.7v-25H-429.5 M-432.7-825.3c-2.9,0-5.2,2.3-5.2,5.1s2.4,5.2,5.2,5.2c2.8,0,5.1-2.3,5.1-5.2
		C-427.6-823-429.9-825.3-432.7-825.3L-432.7-825.3z M-428.5-805.9h-1h-6.7h-1v1v25v1h1h6.7h1v-1v-25V-805.9L-428.5-805.9z"/>
</g>
<path d="M-684.9-871.5c0-7.2,6.2-13.1,13.4-13.1c7.8,0,13.4,5.3,13.4,13.1v12.5h-6.6v-2.2c-1.6,1.7-4.3,2.8-7.4,2.8
	C-679.6-858.4-684.9-863.7-684.9-871.5z M-664.7-871.5c0-4-2.8-6.8-6.7-6.8c-3.8,0-6.7,2.9-6.7,6.8c0,3.8,2.9,6.8,6.7,6.8
	C-667.5-864.6-664.7-867.6-664.7-871.5z"/>
<path d="M-651.5-871.5c0-7.8,6.7-13.1,13.6-13.1c7.8,0,13.3,5.3,13.3,13.1v12.5h-6.7v-12.5c0-4-2.8-6.8-6.7-6.8
	c-3.8,0-6.7,2.9-6.7,6.8v12.5h-6.7L-651.5-871.5L-651.5-871.5z"/>
<path d="M-619.4-871.5c0-7.2,6.2-13.1,13.4-13.1c7.8,0,13.4,5.3,13.4,13.1v12.5h-6.6v-2.2c-1.6,1.7-4.3,2.8-7.4,2.8
	C-614.1-858.4-619.4-863.7-619.4-871.5z M-599.2-871.5c0-4-2.8-6.8-6.7-6.8c-3.8,0-6.7,2.9-6.7,6.8c0,3.8,2.9,6.8,6.7,6.8
	C-602-864.6-599.2-867.6-599.2-871.5z"/>
<path d="M-586-871.5c0-7.8,6.7-13.1,13.6-13.1c4.3,0,7.8,1.6,10.2,4.2c2.5-2.6,6.2-4.2,10-4.2c7.8,0,13.3,5.3,13.3,13.1v12.5h-6.7
	v-12.5c0-4-2.9-6.8-6.7-6.8c-4,0-6.7,2.9-6.7,6.8v12.5h-6.7v-12.5c0-4-2.8-6.8-6.7-6.8c-3.8,0-6.7,2.9-6.7,6.8v12.5h-6.7v-12.5H-586
	z"/>
<path d="M-532.5-871.5c0-7.8,6.7-13.1,13.6-13.1c7.8,0,13.3,5.3,13.3,13.1v12.5h-6.7v-12.5c0-4-2.8-6.8-6.7-6.8
	c-3.8,0-6.7,2.9-6.7,6.8v12.5h-6.7L-532.5-871.5L-532.5-871.5z"/>
<path d="M-500.3-871.5c0-7.2,6.2-13.1,13.4-13.1c7.8,0,13,4.9,13.4,13.1v2.3h-20.3c0.8,3,3.5,5,6.8,5c2.2,0,3.4-0.6,5.2-2.3l4.1,4.2
	c-2.4,2.4-5.6,3.8-9.2,3.8C-494.7-858.4-500.3-863.7-500.3-871.5z M-480.1-874.3c-1-2.9-3.4-4.8-6.8-4.8s-5.8,2-6.7,4.8H-480.1z"/>
<path d="M-467.4-864.6h16.7c1.2,0,2-0.8,2-2c0-1.1-0.8-1.9-2-1.9h-9.7c-4.2,0-7.7-3.4-7.7-7.7c0-4.1,3.5-7.7,7.7-7.7h14.9v5.6h-14.3
	c-1.1,0-2,0.8-2,1.9c0,1.2,0.8,2,2,2h9.7c4.2,0,7.7,3.2,7.7,7.7c0,4-3.5,7.7-7.7,7.7h-17.3L-467.4-864.6L-467.4-864.6z"/>
<path d="M-421.8-864.6h16.7c1.2,0,2-0.8,2-2c0-1.1-0.8-1.9-2-1.9h-9.7c-4.2,0-7.7-3.4-7.7-7.7c0-4.1,3.5-7.7,7.7-7.7h14.9v5.6h-14.3
	c-1.1,0-2,0.8-2,1.9c0,1.2,0.8,2,2,2h9.7c4.2,0,7.7,3.2,7.7,7.7c0,4-3.5,7.7-7.7,7.7h-17.3L-421.8-864.6L-421.8-864.6z"/>
<path d="M-435.5-897.6c0-3.8,3.1-6.9,6.9-6.9h2.7c1.3-4.5,5.5-7.6,10.2-7.6c5.9,0,10.7,4.8,10.7,10.7s-4.8,10.7-10.7,10.7h-13
	C-432.4-890.7-435.5-893.8-435.5-897.6z"/>
<g>
	<path d="M-436.7-858.5v-26h7.7v26H-436.7z M-432.7-884.5c-2.5,0-4.7-2.2-4.7-4.7s2.1-4.6,4.7-4.6s4.6,2,4.6,4.6
		C-428.1-886.6-430.2-884.5-432.7-884.5z"/>
	<path class="st1" d="M-432.7-893.3c2.3,0,4.1,1.8,4.1,4.1s-1.8,4.2-4.1,4.2s-4.2-1.9-4.2-4.2S-435-893.3-432.7-893.3 M-429.5-883.9
		v25h-6.7v-25H-429.5 M-432.7-894.3c-2.9,0-5.2,2.3-5.2,5.1c0,1.7,0.9,3.3,2.2,4.2h-0.5h-1v1v25v1h1h6.7h1v-1v-25v-1h-1h-0.3
		c1.3-0.9,2.1-2.5,2.1-4.2C-427.6-892-429.9-894.3-432.7-894.3L-432.7-894.3z"/>
</g>
</svg>
