<svg width="199" height="45" viewBox="0 0 199 45" fill="none" xmlns="http://www.w3.org/2000/svg">
<g clip-path="url(#clip0_319_3)">
<path d="M165.032 9.49316C165.032 7.1507 166.895 5.23974 169.18 5.23974H170.803C171.585 2.46577 174.11 0.55481 176.936 0.55481C180.483 0.55481 183.369 3.51371 183.369 7.1507C183.369 10.7877 180.483 13.7466 176.936 13.7466H169.12C166.895 13.7466 165.032 11.8356 165.032 9.49316Z" fill="url(#paint0_linear_319_3)"/>
<path d="M162.386 17.7535C162.386 16.3357 163.529 15.2261 164.911 15.2261C166.294 15.2261 167.376 16.3357 167.376 17.7535C167.376 19.1713 166.294 20.3425 164.911 20.3425C163.529 20.3425 162.386 19.1713 162.386 17.7535Z" fill="#EFCFD9"/>
<path d="M21.1626 29.7123C18.878 29.7123 17.1345 31.5 17.1345 33.9041C17.1345 36.2465 18.878 38.0958 21.1626 38.0958C23.5674 38.1575 25.1907 36.3082 25.1907 33.9041C25.1907 31.4383 23.5073 29.7123 21.1626 29.7123Z" fill="#93E1F5"/>
<path d="M60.6018 29.7123C58.3172 29.7123 56.5737 31.5 56.5737 33.9041C56.5737 36.2465 58.3172 38.0958 60.6018 38.0958C62.9465 38.1575 64.6299 36.3082 64.6299 33.9041C64.6299 31.4383 62.9465 29.7123 60.6018 29.7123Z" fill="#ACC5EF"/>
<path d="M132.146 29.1576C130.102 29.1576 128.659 30.3905 128.118 32.1165H136.234C135.633 30.3288 134.19 29.1576 132.146 29.1576Z" fill="#E9C2E1"/>
<path d="M188.659 23.1165H10.7015C4.86978 23.1165 0.180359 27.9863 0.180359 33.9041C0.180359 39.8836 4.86978 44.6918 10.7015 44.6918H188.659C194.491 44.6918 199.18 39.8836 199.18 33.9041C199.18 27.9247 194.491 23.1165 188.659 23.1165ZM29.2187 41.6096H25.2508V40.2534C24.2888 41.3014 22.6656 41.9795 20.8018 41.9795C16.2927 41.9795 13.1063 38.7123 13.1063 33.9041C13.1063 29.4658 16.8338 25.8288 21.1625 25.8288C25.852 25.8288 29.2187 29.0959 29.2187 33.9041V41.6096ZM49.2991 41.6096H45.271V33.9041C45.271 31.4384 43.5876 29.7123 41.2429 29.7123C38.9583 29.7123 37.2148 31.5 37.2148 33.9041V41.6096H33.1867V33.9041H33.1266C33.1266 29.0959 37.1547 25.8288 41.303 25.8288C45.9924 25.8288 49.2991 29.0959 49.2991 33.9041V41.6096ZM68.5979 41.6096H64.6299V40.2534C63.668 41.3014 62.0447 41.9795 60.181 41.9795C55.6719 41.9795 52.4855 38.7123 52.4855 33.9041C52.4855 29.4658 56.213 25.8288 60.5417 25.8288C65.2311 25.8288 68.5979 29.0959 68.5979 33.9041V41.6096ZM100.883 41.6096H96.7946V33.9041C96.7946 31.4384 95.0511 29.7123 92.7665 29.7123C90.3616 29.7123 88.7384 31.5 88.7384 33.9041V41.6096H84.7103V33.9041C84.7103 31.4384 83.0269 29.7123 80.6822 29.7123C78.3976 29.7123 76.6541 31.5 76.6541 33.9041V41.6096H72.626V33.9041H72.5659C72.5659 29.0959 76.594 25.8288 80.7423 25.8288C83.3275 25.8288 85.4317 26.8151 86.8746 28.4178C88.3776 26.8151 90.6021 25.8288 92.8867 25.8288C97.5761 25.8288 100.883 29.0959 100.883 33.9041V41.6096ZM120.903 41.6096H116.875V33.9041C116.875 31.4384 115.192 29.7123 112.847 29.7123C110.562 29.7123 108.819 31.5 108.819 33.9041V41.6096H104.791V33.9041H104.731C104.731 29.0959 108.759 25.8288 112.907 25.8288C117.596 25.8288 120.903 29.0959 120.903 33.9041V41.6096ZM140.142 35.3219H127.937C128.418 37.1712 130.041 38.4041 132.025 38.4041C133.348 38.4041 134.069 38.0343 135.152 36.9863L137.617 39.5754C136.174 41.0548 134.25 41.9178 132.085 41.9178C127.456 41.9795 124.029 38.7123 124.029 33.9041C124.029 29.4658 127.757 25.8288 132.085 25.8288C136.775 25.8288 139.901 28.8493 140.142 33.9041V35.3219ZM154.27 41.6096H143.869V38.1575H153.909C154.631 38.1575 155.112 37.6644 155.112 36.9247C155.112 36.2466 154.631 35.7534 153.909 35.7534H148.078C145.553 35.7534 143.448 33.6575 143.448 31.0069C143.448 28.4795 145.553 26.2603 148.078 26.2603H157.036V29.7123H148.438C147.777 29.7123 147.236 30.2055 147.236 30.8836C147.236 31.6233 147.717 32.1165 148.438 32.1165H154.27C156.795 32.1165 158.899 34.0891 158.899 36.863C158.899 39.3288 156.795 41.6096 154.27 41.6096ZM166.655 41.6096H162.627V26.1986H166.655V41.6096ZM181.685 41.6096H171.284V38.1575H181.324C182.046 38.1575 182.527 37.6644 182.527 36.9247C182.527 36.2466 182.046 35.7534 181.324 35.7534H175.493C172.968 35.7534 170.863 33.6575 170.863 31.0069C170.863 28.4795 172.968 26.2603 175.493 26.2603H184.451V29.7123H175.853C175.192 29.7123 174.651 30.2055 174.651 30.8836C174.651 31.6233 175.132 32.1165 175.853 32.1165H181.685C184.21 32.1165 186.314 34.0891 186.314 36.863C186.314 39.3288 184.21 41.6096 181.685 41.6096Z" fill="url(#paint1_linear_319_3)"/>
</g>
<defs>
<linearGradient id="paint0_linear_319_3" x1="168.435" y1="14.719" x2="181.249" y2="2.22146" gradientUnits="userSpaceOnUse">
<stop offset="0.1782" stop-color="#F0D0D8"/>
<stop offset="1" stop-color="#FEECC6"/>
</linearGradient>
<linearGradient id="paint1_linear_319_3" x1="47.7547" y1="-19.3369" x2="154.215" y2="84.4931" gradientUnits="userSpaceOnUse">
<stop offset="0.0497207" stop-color="#88EDF7"/>
<stop offset="0.3531" stop-color="#B3BDEE"/>
<stop offset="0.66" stop-color="#E8C0E2"/>
<stop offset="1" stop-color="#FEECC6"/>
</linearGradient>
<clipPath id="clip0_319_3">
<rect width="199" height="45" fill="white"/>
</clipPath>
</defs>
</svg>
